<?xml version="1.0" standalone="no"?>
<!DOCTYPE svg PUBLIC "-//W3C//DTD SVG 20010904//EN"
 "http://www.w3.org/TR/2001/REC-SVG-20010904/DTD/svg10.dtd">
<svg version="1.0" xmlns="http://www.w3.org/2000/svg"
 width="128.000000pt" height="128.000000pt" viewBox="0 0 128.000000 128.000000"
 preserveAspectRatio="xMidYMid meet">

<g transform="translate(0.000000,128.000000) scale(0.100000,-0.100000)"
fill="#000000" stroke="none">
<path d="M406 1264 c-134 -32 -279 -146 -344 -270 -109 -208 -70 -457 97 -623
159 -159 392 -202 592 -110 l69 32 143 -141 c115 -113 150 -142 179 -147 78
-15 148 55 133 133 -5 29 -34 64 -148 179 l-141 143 18 38 c59 121 76 237 52
349 -63 301 -356 488 -650 417z m278 -60 c78 -27 136 -64 196 -125 66 -67 104
-139 127 -240 22 -100 8 -204 -42 -305 -19 -40 -35 -75 -35 -80 0 -5 68 -76
150 -159 160 -162 170 -178 128 -222 -42 -45 -60 -34 -223 127 -83 83 -154
150 -159 150 -5 0 -40 -16 -80 -35 -380 -185 -795 171 -671 578 33 111 120
215 229 276 45 25 69 33 161 55 37 9 170 -3 219 -20z"/>
<path d="M501 1127 c-14 -17 3 -41 23 -34 9 4 16 13 16 21 0 19 -26 28 -39 13z"/>
<path d="M601 1116 c-18 -21 -8 -32 47 -51 80 -27 146 -87 193 -175 21 -39 24
-59 24 -145 0 -89 -3 -105 -27 -150 -32 -60 -97 -124 -158 -156 -39 -21 -59
-24 -145 -24 -89 0 -106 3 -150 27 -169 88 -234 278 -156 454 24 54 102 131
159 156 46 21 62 42 44 60 -8 8 -29 2 -76 -21 -229 -112 -281 -431 -101 -614
86 -87 177 -121 302 -115 199 9 351 162 361 361 6 124 -28 216 -114 301 -66
67 -181 118 -203 92z"/>
<path d="M380 882 c0 -10 27 -44 60 -77 l60 -59 -61 -62 c-42 -42 -60 -67 -56
-78 11 -27 31 -18 92 44 l59 60 62 -61 c42 -42 67 -60 78 -56 27 11 18 29 -44
92 l-60 61 60 59 c62 61 71 81 44 92 -11 4 -36 -14 -78 -56 l-62 -61 -59 60
c-60 60 -95 76 -95 42z"/>
</g>
</svg>
